<svg width="100" height="96" viewBox="0 0 100 96" fill="none" xmlns="http://www.w3.org/2000/svg">
<path d="M5.85743 66.0259C5.95326 66.2426 6.06159 66.4426 6.17826 66.6426C6.23243 66.7593 6.30743 66.8801 6.3741 66.9884C6.48243 67.2051 6.5991 67.4134 6.7116 67.6218L7.36577 68.7218C7.48661 68.9259 7.60328 69.1259 7.74078 69.3259C7.96995 69.7176 8.24078 70.1009 8.47829 70.4926C8.58662 70.6551 8.68662 70.8176 8.80746 70.9801C9.26579 71.6926 9.68247 72.2843 10.1283 72.8593C10.445 73.2885 10.7616 73.7093 11.1033 74.1302C11.2158 74.2885 11.3408 74.4468 11.4575 74.6052L12.3783 75.7218C12.4908 75.851 12.6033 76.001 12.7242 76.1343C13.1325 76.626 13.5658 77.101 13.9992 77.5844C13.9992 77.5927 14.0117 77.601 14.02 77.6135C14.5575 78.2885 15.1367 78.8885 15.77 79.4219L15.7867 79.4385C16.12 79.7802 16.4534 80.1177 16.8075 80.451L17.2284 80.8552C17.6909 81.2886 18.1534 81.7177 18.6409 82.1344C18.6492 82.1344 18.6534 82.1427 18.6617 82.1469L18.8992 82.3552C19.3242 82.7261 19.7534 83.0927 20.1909 83.4344L20.7118 83.8719C21.0659 84.1552 21.4326 84.4219 21.7951 84.7011L22.3618 85.1344C22.7493 85.4261 23.1618 85.7094 23.5576 85.9928C23.7034 86.0969 23.8493 86.2011 23.9993 86.2969L24.1201 86.3928L25.291 87.1594L25.791 87.4928C26.4035 87.8844 27.0118 88.2511 27.6202 88.6178C27.7952 88.7053 27.9702 88.8011 28.1327 88.9011C28.5827 89.1595 29.0493 89.422 29.5035 89.6595C29.7535 89.8011 30.0119 89.922 30.2702 90.0511C30.5827 90.2261 30.9077 90.397 31.241 90.572C31.3327 90.6011 31.4077 90.6303 31.4827 90.672L31.4994 90.6553C31.6369 90.7178 31.766 90.7845 31.8994 90.8511C32.3994 91.1011 32.9202 91.3386 33.4619 91.572C33.5619 91.6136 33.6702 91.6553 33.7786 91.7136C34.3786 91.9762 34.9786 92.2262 35.5994 92.4678C35.7411 92.5095 35.8911 92.5803 36.0369 92.6345C36.5994 92.847 37.1786 93.0637 37.7536 93.2678L37.9619 93.3428C38.5994 93.5595 39.2286 93.7678 39.8786 93.9637C40.0286 94.0053 40.1828 94.0595 40.3411 94.1012C41.0036 94.3012 41.6453 94.5387 42.3162 94.6637C85.1208 102.426 97.5584 69.0551 97.5584 69.0551C87.1083 82.5969 68.5623 86.1678 50.9996 82.1927C50.3496 82.0427 49.6996 81.8344 49.0412 81.6427C48.112 81.3797 47.1908 81.0893 46.2787 80.7719L46.6745 80.8927L46.4162 80.7927C45.8495 80.601 45.3037 80.3885 44.7495 80.176C44.6139 80.1185 44.4763 80.0657 44.337 80.0177L44.2912 80.0052C43.6787 79.7594 43.0828 79.5094 42.4912 79.2469C42.362 79.2052 42.2536 79.1469 42.1245 79.0969C41.4237 78.7915 40.7291 78.4719 40.0411 78.1385L40.6161 78.3927C40.4661 78.3264 40.3188 78.2541 40.1745 78.176C39.7828 77.9927 39.3911 77.7844 39.0078 77.5885C38.7158 77.4502 38.4282 77.3029 38.1453 77.1468L38.2286 77.1885C37.7578 76.9385 37.2869 76.6677 36.8119 76.4135C36.6703 76.3135 36.5078 76.2302 36.3453 76.1385C35.6392 75.7281 34.9418 75.303 34.2536 74.8635L34.5161 75.0218C34.3397 74.9129 34.1673 74.7975 33.9994 74.676L34.0244 74.6927C33.5766 74.4176 33.1374 74.1286 32.7077 73.826C32.566 73.7343 32.4369 73.6343 32.291 73.5343C31.8421 73.2279 31.4003 72.9111 30.966 72.5843L31.066 72.6551C30.891 72.5135 30.7035 72.3801 30.516 72.2426C30.1494 71.9551 29.7785 71.6801 29.4118 71.3801L28.9202 70.9885C28.3962 70.5715 27.8821 70.1423 27.3785 69.701L27.3743 69.6968L25.9285 68.3843L25.5118 67.9926C25.1701 67.6468 24.8201 67.3176 24.4701 66.9759L24.066 66.5593C23.6346 66.132 23.2136 65.6944 22.8034 65.2467L22.7784 65.2176L22.7076 65.1592C22.2664 64.6747 21.8317 64.1844 21.4034 63.6884C21.2909 63.5592 21.1868 63.4217 21.0701 63.2842L20.1242 62.1384C19.6979 61.6028 19.2811 61.0597 18.8742 60.5092L18.7076 60.2759C8.96579 47.0424 5.44075 28.7797 13.2367 13.7963L6.35326 22.5005C-2.501 35.1631 -1.40515 51.6299 5.36575 65.0759C5.51992 65.4051 5.69076 65.7134 5.85743 66.0259Z" fill="#66EF4B"/>
<path d="M35.6786 47.784L35.6328 47.7174L35.5952 47.6674L35.6786 47.784Z" fill="black"/>
<path d="M40.3368 53.2506L40.7118 53.6256C41.1868 54.0839 41.6744 54.5298 42.1702 54.9756L42.2327 55.0298C42.7327 55.4715 43.2952 55.934 43.8744 56.384L43.9619 56.4506C44.1035 56.5465 44.2244 56.659 44.3619 56.7548C44.9452 57.2048 45.5327 57.634 46.1452 58.0632L46.2077 58.1007C46.4661 58.2882 46.7411 58.459 47.0327 58.6423C47.1494 58.7173 47.2827 58.8173 47.4077 58.8923C47.8494 59.1757 48.2827 59.4382 48.7286 59.709C48.7994 59.7382 48.8619 59.7757 48.9286 59.8048C49.3036 60.034 49.7119 60.2548 50.1036 60.4548C50.2411 60.5382 50.3744 60.6007 50.5161 60.6798C50.7953 60.8173 51.0703 60.9632 51.3369 61.1048L51.4703 61.1632C52.0328 61.4382 52.6078 61.6965 53.1703 61.9507C53.312 62.0049 53.4328 62.0507 53.5536 62.109C54.0161 62.309 54.487 62.5007 54.9495 62.6757C55.1578 62.7465 55.3536 62.8299 55.5495 62.8924C55.9745 63.0507 56.4203 63.1965 56.8412 63.3424L57.4245 63.5299C58.0328 63.7174 58.6495 63.9632 59.2954 64.0632C92.3498 69.5049 99.9999 44.1838 99.9999 44.1838C93.1124 54.0464 79.7831 58.7465 65.5788 55.0756C64.8697 54.8968 64.1665 54.6953 63.4704 54.4715L63.7079 54.5381C63.5079 54.4839 63.3329 54.4214 63.1412 54.3631C62.7079 54.2131 62.2621 54.0673 61.8412 53.9131L61.2412 53.6881C60.7745 53.5006 60.2995 53.3256 59.8454 53.1256C59.7037 53.0631 59.5745 53.0214 59.4662 52.9589C58.8829 52.6964 58.2953 52.4381 57.7245 52.1631L56.8662 51.7173L56.3703 51.4673C55.987 51.2673 55.6328 51.0589 55.2661 50.8464C55.1726 50.8025 55.0822 50.7524 54.9953 50.6964L55.0078 50.7006C54.5661 50.4256 54.1078 50.1589 53.6828 49.8797C53.5411 49.8006 53.412 49.7047 53.2786 49.6214L52.412 49.0589C51.812 48.6422 51.2244 48.1964 50.6286 47.7631C50.4953 47.6422 50.3661 47.5422 50.2369 47.4339C43.991 42.5463 39.066 35.8671 36.7285 28.3045C34.2659 20.4419 34.8076 11.6252 39.0618 4.47095L33.8326 11.8377C27.4117 21.0086 27.7742 33.2671 32.7743 42.9672C33.6868 44.7589 34.6118 46.2714 35.6326 47.713C36.5826 49.0714 37.6326 50.6631 38.8993 51.7548C39.3493 52.2673 39.8327 52.7548 40.3368 53.2506Z" fill="#66EF4B"/>
<path d="M56.9414 3.86254C53.1539 9.39176 52.7913 16.2585 55.3997 22.3544C58.1706 28.8294 63.8331 33.9128 70.4332 36.3212C70.704 36.4254 70.9666 36.5129 71.2457 36.6129L71.6124 36.7254C71.9957 36.8462 72.3832 36.9879 72.7791 37.0754C91.0334 40.5796 95.9752 27.7503 97.3043 25.8628C92.9585 32.0711 85.6709 33.5628 76.7291 31.4003C75.9516 31.2107 75.1863 30.9742 74.4374 30.692L74.5749 30.7378C73.6431 30.4153 72.7304 30.0397 71.8416 29.6128L71.9999 29.6836C70.2915 28.8503 68.8249 27.9503 67.4623 26.9169C59.4706 20.8752 54.5289 9.37093 59.7456 0L56.9414 3.86254Z" fill="#66EF4B"/>
</svg>
