<?xml version="1.0" encoding="UTF-8" standalone="no"?>
<!-- Created with Inkscape (http://www.inkscape.org/) -->

<svg
   width="194.80338mm"
   height="194.80338mm"
   viewBox="0 0 194.80338 194.80338"
   version="1.1"
   id="svg5"
   inkscape:version="1.1.1 (3bf5ae0d25, 2021-09-20)"
   sodipodi:docname="gear_skills.svg"
   xmlns:inkscape="http://www.inkscape.org/namespaces/inkscape"
   xmlns:sodipodi="http://sodipodi.sourceforge.net/DTD/sodipodi-0.dtd"
   xmlns="http://www.w3.org/2000/svg"
   xmlns:svg="http://www.w3.org/2000/svg">
  <sodipodi:namedview
     id="namedview7"
     pagecolor="#505050"
     bordercolor="#eeeeee"
     borderopacity="1"
     inkscape:pageshadow="0"
     inkscape:pageopacity="0"
     inkscape:pagecheckerboard="0"
     inkscape:document-units="mm"
     showgrid="false"
     inkscape:lockguides="true"
     inkscape:zoom="0.42850028"
     inkscape:cx="180.86336"
     inkscape:cy="435.23892"
     inkscape:window-width="1366"
     inkscape:window-height="705"
     inkscape:window-x="-8"
     inkscape:window-y="-8"
     inkscape:window-maximized="1"
     inkscape:current-layer="layer1"
     fit-margin-top="0"
     fit-margin-left="0"
     fit-margin-right="0"
     fit-margin-bottom="0" />
  <defs
     id="defs2" />
  <g
     inkscape:label="Layer 1"
     inkscape:groupmode="layer"
     id="layer1"
     transform="translate(-0.97262743,-0.97323844)">
    <g
       id="g1224"
       transform="matrix(1.4817989,0,0,1.4817989,-64.716754,-93.079804)"
       style="stroke-width:0.674856">
      <g
         style="fill:#000000;fill-opacity:0;stroke:#66ef4b;stroke-width:2.62769;stroke-miterlimit:4;stroke-dasharray:none;stroke-opacity:1"
         id="g1007"
         transform="matrix(0.77047347,0,0,0.77047347,45.343117,64.484487)">
        <path
           d="m 164.07,67.866 -13.344,-4.89 C 149.514,59.1 147.942,55.314 146.04,51.672 l 5.982,-12.906 c 1.062,-2.28 0.582,-4.986 -1.2,-6.762 l -14.82,-14.82 c -1.776,-1.788 -4.482,-2.262 -6.768,-1.2 l -12.9,5.982 c -3.654,-1.908 -7.44,-3.474 -11.31,-4.686 L 100.134,3.942 C 99.264,1.572 97.02,0 94.5,0 h -21 c -2.514,0 -4.764,1.572 -5.634,3.936 l -4.89,13.338 c -3.864,1.212 -7.65,2.778 -11.304,4.686 L 38.76,15.978 c -2.28,-1.062 -4.986,-0.582 -6.762,1.2 l -14.82,14.82 c -1.782,1.782 -2.262,4.482 -1.2,6.768 l 5.988,12.9 c -1.908,3.654 -3.48,7.44 -4.686,11.304 L 3.936,67.86 C 1.572,68.736 0,70.986 0,73.5 v 21 c 0,2.52 1.572,4.764 3.936,5.628 l 13.338,4.89 c 1.212,3.876 2.778,7.65 4.686,11.31 l -5.988,12.9 c -1.062,2.286 -0.582,4.986 1.2,6.768 l 14.82,14.82 c 1.782,1.782 4.488,2.262 6.762,1.2 l 12.906,-5.982 c 3.642,1.902 7.428,3.474 11.304,4.686 l 4.89,13.344 C 68.736,166.428 70.986,168 73.5,168 h 21 c 2.52,0 4.764,-1.572 5.628,-3.93 l 4.89,-13.344 c 3.876,-1.212 7.662,-2.784 11.31,-4.686 l 12.9,5.982 c 2.286,1.062 4.992,0.582 6.768,-1.2 l 14.82,-14.82 c 1.782,-1.782 2.262,-4.482 1.2,-6.768 l -5.982,-12.9 c 1.902,-3.642 3.474,-7.428 4.686,-11.31 l 13.344,-4.89 C 166.428,99.264 168,97.02 168,94.5 v -21 c 0,-2.514 -1.572,-4.764 -3.93,-5.634 z m -8.07,22.446 -12.27,4.5 c -1.848,0.672 -3.24,2.214 -3.738,4.116 -1.284,4.908 -3.252,9.672 -5.862,14.154 -0.984,1.692 -1.086,3.762 -0.258,5.544 l 5.496,11.862 -8.886,8.886 -11.862,-5.496 c -1.77,-0.828 -3.84,-0.72 -5.544,0.258 -4.482,2.61 -9.246,4.578 -14.154,5.862 -1.896,0.498 -3.438,1.89 -4.116,3.738 L 90.312,156 H 77.688 l -4.5,-12.27 c -0.678,-1.848 -2.214,-3.24 -4.122,-3.738 -4.902,-1.278 -9.666,-3.252 -14.16,-5.862 -1.692,-0.99 -3.762,-1.086 -5.538,-0.258 l -11.862,5.496 -8.892,-8.886 5.502,-11.862 c 0.822,-1.776 0.732,-3.846 -0.252,-5.538 -2.616,-4.506 -4.59,-9.27 -5.862,-14.154 -0.498,-1.902 -1.896,-3.444 -3.744,-4.122 L 12,90.312 V 77.688 l 12.264,-4.5 c 1.848,-0.678 3.246,-2.22 3.744,-4.122 1.272,-4.884 3.246,-9.648 5.862,-14.16 0.984,-1.692 1.08,-3.756 0.252,-5.538 l -5.496,-11.85 8.892,-8.892 11.856,5.496 c 1.77,0.828 3.846,0.732 5.532,-0.252 4.512,-2.616 9.276,-4.59 14.16,-5.862 1.902,-0.498 3.444,-1.896 4.122,-3.744 L 77.688,12 h 12.624 l 4.5,12.264 c 0.672,1.848 2.214,3.246 4.122,3.744 4.884,1.272 9.648,3.246 14.154,5.862 1.698,0.984 3.762,1.074 5.538,0.252 l 11.862,-5.496 8.886,8.892 -5.496,11.862 c -0.828,1.776 -0.726,3.846 0.258,5.538 2.61,4.494 4.584,9.252 5.862,14.16 0.498,1.902 1.89,3.444 3.738,4.122 L 156,77.688 Z"
           fill="#4a5a63"
           id="path998"
           style="fill:#000000;fill-opacity:0;stroke:#66ef4b;stroke-width:2.62769;stroke-miterlimit:4;stroke-dasharray:none;stroke-opacity:1" />
      </g>
      <circle
         style="fill:#000000;fill-opacity:0;stroke:#66ef4b;stroke-width:2.02456;stroke-linecap:round;stroke-linejoin:bevel;stroke-miterlimit:4;stroke-dasharray:none;stroke-dashoffset:10.371;stroke-opacity:1;paint-order:stroke fill markers"
         id="path1139"
         cx="109.98209"
         cy="129.03519"
         r="35.533264" />
    </g>
  </g>
</svg>
