<svg width="358" height="383" viewBox="0 0 358 383" fill="none" xmlns="http://www.w3.org/2000/svg">
<mask id="path-1-outside-1_1_18" maskUnits="userSpaceOnUse" x="0" y="0" width="358" height="383" fill="black">
<rect fill="white" width="358" height="383"/>
<path d="M155.257 4.79205C149.021 7.91174 146.724 12.5623 145.048 16.3644C143.372 20.1666 142.322 23.1545 139.423 26.4748C136.524 29.7951 131.555 33.6502 121.68 37.6259C111.805 41.6016 105.571 42.2699 101.162 41.8881C96.7525 41.5064 93.9283 40.0412 90.0727 38.4684C85.4468 36.5812 80.6546 35.3731 74.6099 37.2542C68.5651 39.1352 62.5201 43.5231 54.1042 51.7631C45.6882 60.0032 41.1586 65.9428 39.1617 71.9466C37.0582 78.2702 38.6385 83.528 40.1528 87.3971C41.6672 91.2662 43.0674 94.1153 43.3743 98.4987C43.6812 102.882 42.8979 109.071 38.7404 118.831C34.5828 128.591 30.6776 133.409 27.2671 136.289C23.8566 139.169 20.7315 140.27 16.8222 142.05C12.1183 144.191 7.97967 146.949 5.12593 152.78C2.27219 158.611 1.10046 166.307 1 178.626C1.1007 190.945 2.27219 198.641 5.12593 204.472C8.24242 210.839 12.913 213.422 16.8222 215.201C20.7314 216.981 23.8568 218.083 27.2671 220.963C30.6775 223.843 34.5828 228.66 38.7404 238.421C42.8978 248.181 43.6812 254.369 43.3743 258.753C43.0671 263.136 41.6671 265.985 40.1528 269.854C38.439 274.233 37.1646 279.301 39.1617 285.305C41.0498 290.981 45.6882 297.248 54.1042 305.488C62.5201 313.728 68.9266 318.229 74.6099 319.997C81.2335 322.058 86.2172 320.356 90.0727 318.783C93.9283 317.21 96.7525 315.745 101.162 315.363C105.366 314.999 111.805 315.65 121.68 319.626C127.289 321.884 131.254 324.112 134.219 326.217V337.232C134.216 347.666 142.629 356.251 153.238 356.251V362.619C153.238 373.053 161.699 381.626 172.306 381.626H184.944C195.551 381.626 204.012 373.053 204.012 362.619V356.251C214.621 356.251 223.034 347.666 223.031 337.232V326.217C225.996 324.111 229.961 321.883 235.57 319.625C245.445 315.649 251.884 314.999 256.088 315.363C260.498 315.745 263.322 317.21 267.177 318.782C271.033 320.355 276.017 322.058 282.64 319.997C288.323 318.228 294.73 313.728 303.146 305.488C311.562 297.248 316.2 290.981 318.088 285.304C320.085 279.301 318.811 274.233 317.097 269.854C315.583 265.985 314.183 263.136 313.876 258.752C313.569 254.369 314.352 248.18 318.51 238.42C322.667 228.66 326.573 223.842 329.983 220.962C333.393 218.082 336.519 216.98 340.428 215.201C344.337 213.421 349.008 210.838 352.124 204.471C354.978 198.64 356.149 190.944 356.25 178.625C356.149 166.306 354.978 158.61 352.124 152.779C349.27 146.949 345.132 144.191 340.428 142.05C336.519 140.27 333.393 139.168 329.983 136.288C326.572 133.408 322.667 128.591 318.51 118.83C314.352 109.07 313.569 102.882 313.876 98.4982C314.183 94.1148 315.583 91.2657 317.097 87.3966C318.612 83.5275 320.192 78.2696 318.088 71.9461C316.091 65.9423 311.562 60.0026 303.146 51.7626C294.73 43.5226 288.685 39.1348 282.64 37.2537C276.595 35.3728 271.803 36.5807 267.177 38.4679C263.322 40.0408 260.498 41.5058 256.088 41.8876C251.679 42.2693 245.445 41.6011 235.57 37.6254C225.695 33.6497 220.727 29.7946 217.827 26.4742C214.928 23.1539 213.878 20.1661 212.202 16.3639C210.526 12.5617 208.229 7.91121 201.993 4.79152C196.858 2.22255 190.106 1.10933 178.625 1C167.144 1.11056 160.392 2.22308 155.257 4.79205ZM196.331 16.1285C198.335 17.1314 199.247 18.3027 200.642 21.4687C202.038 24.6345 203.816 29.7059 208.275 34.8128C212.734 39.9198 219.669 44.8871 230.837 49.3837C242.006 53.8802 250.404 55.111 257.166 54.5256C263.928 53.9401 268.794 51.5378 272.01 50.2262C274.424 49.2415 276.139 48.5442 278.836 49.3837C281.534 50.2231 286.48 53.1996 294.25 60.8073C302.02 68.4151 305.073 73.0495 306.045 75.9729C306.748 78.0857 306.513 79.5413 305.252 82.7627C303.992 85.9841 301.699 90.8485 301.226 97.6061C300.752 104.364 302.094 112.736 306.801 123.786C311.508 134.837 316.655 141.619 321.83 145.99C327.006 150.36 332.036 152.144 335.175 153.572C337.36 154.567 339.304 155.489 340.701 158.342C342.094 161.19 343.464 167.269 343.563 178.625C343.464 189.982 342.177 195.891 340.701 198.908C339.304 201.761 337.309 202.706 335.175 203.678C332.036 205.107 327.006 206.89 321.83 211.261C316.655 215.631 311.508 222.413 306.801 233.464C302.094 244.514 300.752 252.887 301.226 259.644C301.699 266.402 303.992 271.266 305.252 274.488C306.134 276.74 306.929 278.622 306.045 281.277C305.162 283.933 302.02 288.835 294.25 296.443C286.48 304.051 281.757 307.007 278.836 307.916C276.708 308.579 275.225 308.336 272.01 307.024C268.794 305.712 263.928 303.31 257.166 302.725C250.404 302.139 242.006 303.37 230.837 307.867C227.924 309.04 225.397 310.247 223.031 311.472V299.169C231.416 299.155 231.402 286.651 223.13 286.469C223.529 282.154 225.765 277.52 229.758 271.997C234.172 265.892 240.495 259.026 246.993 251.07C259.99 235.159 273.78 214.597 273.78 184.287C273.78 132.657 231.253 90.725 178.624 89.8126C125.995 90.7251 83.468 132.657 83.468 184.287C83.468 214.597 97.2586 235.159 110.255 251.07C116.754 259.026 123.076 265.892 127.49 271.997C131.479 277.515 133.667 282.182 134.069 286.494C125.777 286.661 125.814 299.169 134.218 299.169V311.472C131.852 310.247 129.326 309.04 126.412 307.867C115.244 303.37 106.845 302.139 100.083 302.725C93.3215 303.31 88.455 305.712 85.2398 307.024C82.0245 308.336 80.5416 308.579 78.4128 307.916C75.4921 307.007 70.7696 304.051 62.9995 296.443C55.2293 288.835 52.0873 283.933 51.204 281.277C50.3205 278.622 51.1153 276.74 51.9969 274.488C53.2576 271.266 55.5504 266.402 56.0237 259.644C56.497 252.887 55.1553 244.514 50.4482 233.464C45.7409 222.413 40.5943 215.631 35.4189 211.261C30.2436 206.89 25.2132 205.107 22.0747 203.678C19.9406 202.706 17.9454 201.762 16.5488 198.908C15.0723 195.891 13.7849 189.982 13.6866 178.625C13.7849 167.269 15.1552 161.19 16.5488 158.342C17.9454 155.489 19.8893 154.567 22.0747 153.572C25.2132 152.144 30.2435 150.36 35.4189 145.99C40.5943 141.619 45.7409 134.837 50.4482 123.786C55.1555 112.736 56.497 104.364 56.0237 97.6061C55.5504 90.8485 53.2576 85.9841 51.9969 82.7627C50.7362 79.5413 50.5013 78.0857 51.204 75.9729C52.1765 73.0495 55.2292 68.4151 62.9994 60.8073C70.7696 53.1996 75.715 50.2231 78.4128 49.3837C81.1105 48.5442 82.8256 49.2422 85.2397 50.2262C88.455 51.5379 93.3215 53.9401 100.083 54.5256C106.845 55.1111 115.244 53.8804 126.412 49.3837C137.581 44.8871 144.516 39.9198 148.975 34.8128C153.434 29.7059 155.211 24.6345 156.607 21.4687C158.003 18.3028 158.914 17.1315 160.919 16.1285C163.32 14.9273 168.73 13.7712 178.625 13.7373C188.519 13.7709 193.929 14.9273 196.331 16.1285ZM178.625 102.562C224.467 103.473 261.094 139.696 261.094 184.288C261.094 210 249.547 227.913 237.168 243.066C230.979 250.643 224.565 257.494 219.463 264.551C214.642 271.22 210.779 278.366 210.369 286.469H184.944V251.591L205.326 231.259C209.504 227.244 206.572 220.188 200.779 220.318C199.095 220.356 197.496 221.06 196.331 222.276L178.625 239.919L160.92 222.276C159.755 221.06 158.155 220.356 156.472 220.318C150.678 220.189 147.746 227.244 151.924 231.259L172.257 251.591V286.469H146.832C146.421 278.366 142.608 271.22 137.787 264.551C132.685 257.494 126.271 250.643 120.082 243.066C107.704 227.913 96.1563 210 96.1563 184.288C96.1563 139.696 132.783 103.473 178.625 102.562ZM178.625 119.289C170.165 119.289 170.165 131.989 178.625 131.989C197.531 131.989 214.989 142.016 224.431 158.305C229.113 165.785 239.511 158.891 235.384 151.937C223.674 131.736 202.025 119.289 178.625 119.289ZM242.087 172.282C238.589 172.268 235.739 175.089 235.719 178.588C235.698 182.082 238.507 184.935 242.001 184.969C245.499 185.003 248.365 182.198 248.406 178.662C248.406 175.131 245.581 172.295 242.087 172.282Z"/>
</mask>
<path d="M155.257 4.79205C149.021 7.91174 146.724 12.5623 145.048 16.3644C143.372 20.1666 142.322 23.1545 139.423 26.4748C136.524 29.7951 131.555 33.6502 121.68 37.6259C111.805 41.6016 105.571 42.2699 101.162 41.8881C96.7525 41.5064 93.9283 40.0412 90.0727 38.4684C85.4468 36.5812 80.6546 35.3731 74.6099 37.2542C68.5651 39.1352 62.5201 43.5231 54.1042 51.7631C45.6882 60.0032 41.1586 65.9428 39.1617 71.9466C37.0582 78.2702 38.6385 83.528 40.1528 87.3971C41.6672 91.2662 43.0674 94.1153 43.3743 98.4987C43.6812 102.882 42.8979 109.071 38.7404 118.831C34.5828 128.591 30.6776 133.409 27.2671 136.289C23.8566 139.169 20.7315 140.27 16.8222 142.05C12.1183 144.191 7.97967 146.949 5.12593 152.78C2.27219 158.611 1.10046 166.307 1 178.626C1.1007 190.945 2.27219 198.641 5.12593 204.472C8.24242 210.839 12.913 213.422 16.8222 215.201C20.7314 216.981 23.8568 218.083 27.2671 220.963C30.6775 223.843 34.5828 228.66 38.7404 238.421C42.8978 248.181 43.6812 254.369 43.3743 258.753C43.0671 263.136 41.6671 265.985 40.1528 269.854C38.439 274.233 37.1646 279.301 39.1617 285.305C41.0498 290.981 45.6882 297.248 54.1042 305.488C62.5201 313.728 68.9266 318.229 74.6099 319.997C81.2335 322.058 86.2172 320.356 90.0727 318.783C93.9283 317.21 96.7525 315.745 101.162 315.363C105.366 314.999 111.805 315.65 121.68 319.626C127.289 321.884 131.254 324.112 134.219 326.217V337.232C134.216 347.666 142.629 356.251 153.238 356.251V362.619C153.238 373.053 161.699 381.626 172.306 381.626H184.944C195.551 381.626 204.012 373.053 204.012 362.619V356.251C214.621 356.251 223.034 347.666 223.031 337.232V326.217C225.996 324.111 229.961 321.883 235.57 319.625C245.445 315.649 251.884 314.999 256.088 315.363C260.498 315.745 263.322 317.21 267.177 318.782C271.033 320.355 276.017 322.058 282.64 319.997C288.323 318.228 294.73 313.728 303.146 305.488C311.562 297.248 316.2 290.981 318.088 285.304C320.085 279.301 318.811 274.233 317.097 269.854C315.583 265.985 314.183 263.136 313.876 258.752C313.569 254.369 314.352 248.18 318.51 238.42C322.667 228.66 326.573 223.842 329.983 220.962C333.393 218.082 336.519 216.98 340.428 215.201C344.337 213.421 349.008 210.838 352.124 204.471C354.978 198.64 356.149 190.944 356.25 178.625C356.149 166.306 354.978 158.61 352.124 152.779C349.27 146.949 345.132 144.191 340.428 142.05C336.519 140.27 333.393 139.168 329.983 136.288C326.572 133.408 322.667 128.591 318.51 118.83C314.352 109.07 313.569 102.882 313.876 98.4982C314.183 94.1148 315.583 91.2657 317.097 87.3966C318.612 83.5275 320.192 78.2696 318.088 71.9461C316.091 65.9423 311.562 60.0026 303.146 51.7626C294.73 43.5226 288.685 39.1348 282.64 37.2537C276.595 35.3728 271.803 36.5807 267.177 38.4679C263.322 40.0408 260.498 41.5058 256.088 41.8876C251.679 42.2693 245.445 41.6011 235.57 37.6254C225.695 33.6497 220.727 29.7946 217.827 26.4742C214.928 23.1539 213.878 20.1661 212.202 16.3639C210.526 12.5617 208.229 7.91121 201.993 4.79152C196.858 2.22255 190.106 1.10933 178.625 1C167.144 1.11056 160.392 2.22308 155.257 4.79205ZM196.331 16.1285C198.335 17.1314 199.247 18.3027 200.642 21.4687C202.038 24.6345 203.816 29.7059 208.275 34.8128C212.734 39.9198 219.669 44.8871 230.837 49.3837C242.006 53.8802 250.404 55.111 257.166 54.5256C263.928 53.9401 268.794 51.5378 272.01 50.2262C274.424 49.2415 276.139 48.5442 278.836 49.3837C281.534 50.2231 286.48 53.1996 294.25 60.8073C302.02 68.4151 305.073 73.0495 306.045 75.9729C306.748 78.0857 306.513 79.5413 305.252 82.7627C303.992 85.9841 301.699 90.8485 301.226 97.6061C300.752 104.364 302.094 112.736 306.801 123.786C311.508 134.837 316.655 141.619 321.83 145.99C327.006 150.36 332.036 152.144 335.175 153.572C337.36 154.567 339.304 155.489 340.701 158.342C342.094 161.19 343.464 167.269 343.563 178.625C343.464 189.982 342.177 195.891 340.701 198.908C339.304 201.761 337.309 202.706 335.175 203.678C332.036 205.107 327.006 206.89 321.83 211.261C316.655 215.631 311.508 222.413 306.801 233.464C302.094 244.514 300.752 252.887 301.226 259.644C301.699 266.402 303.992 271.266 305.252 274.488C306.134 276.74 306.929 278.622 306.045 281.277C305.162 283.933 302.02 288.835 294.25 296.443C286.48 304.051 281.757 307.007 278.836 307.916C276.708 308.579 275.225 308.336 272.01 307.024C268.794 305.712 263.928 303.31 257.166 302.725C250.404 302.139 242.006 303.37 230.837 307.867C227.924 309.04 225.397 310.247 223.031 311.472V299.169C231.416 299.155 231.402 286.651 223.13 286.469C223.529 282.154 225.765 277.52 229.758 271.997C234.172 265.892 240.495 259.026 246.993 251.07C259.99 235.159 273.78 214.597 273.78 184.287C273.78 132.657 231.253 90.725 178.624 89.8126C125.995 90.7251 83.468 132.657 83.468 184.287C83.468 214.597 97.2586 235.159 110.255 251.07C116.754 259.026 123.076 265.892 127.49 271.997C131.479 277.515 133.667 282.182 134.069 286.494C125.777 286.661 125.814 299.169 134.218 299.169V311.472C131.852 310.247 129.326 309.04 126.412 307.867C115.244 303.37 106.845 302.139 100.083 302.725C93.3215 303.31 88.455 305.712 85.2398 307.024C82.0245 308.336 80.5416 308.579 78.4128 307.916C75.4921 307.007 70.7696 304.051 62.9995 296.443C55.2293 288.835 52.0873 283.933 51.204 281.277C50.3205 278.622 51.1153 276.74 51.9969 274.488C53.2576 271.266 55.5504 266.402 56.0237 259.644C56.497 252.887 55.1553 244.514 50.4482 233.464C45.7409 222.413 40.5943 215.631 35.4189 211.261C30.2436 206.89 25.2132 205.107 22.0747 203.678C19.9406 202.706 17.9454 201.762 16.5488 198.908C15.0723 195.891 13.7849 189.982 13.6866 178.625C13.7849 167.269 15.1552 161.19 16.5488 158.342C17.9454 155.489 19.8893 154.567 22.0747 153.572C25.2132 152.144 30.2435 150.36 35.4189 145.99C40.5943 141.619 45.7409 134.837 50.4482 123.786C55.1555 112.736 56.497 104.364 56.0237 97.6061C55.5504 90.8485 53.2576 85.9841 51.9969 82.7627C50.7362 79.5413 50.5013 78.0857 51.204 75.9729C52.1765 73.0495 55.2292 68.4151 62.9994 60.8073C70.7696 53.1996 75.715 50.2231 78.4128 49.3837C81.1105 48.5442 82.8256 49.2422 85.2397 50.2262C88.455 51.5379 93.3215 53.9401 100.083 54.5256C106.845 55.1111 115.244 53.8804 126.412 49.3837C137.581 44.8871 144.516 39.9198 148.975 34.8128C153.434 29.7059 155.211 24.6345 156.607 21.4687C158.003 18.3028 158.914 17.1315 160.919 16.1285C163.32 14.9273 168.73 13.7712 178.625 13.7373C188.519 13.7709 193.929 14.9273 196.331 16.1285ZM178.625 102.562C224.467 103.473 261.094 139.696 261.094 184.288C261.094 210 249.547 227.913 237.168 243.066C230.979 250.643 224.565 257.494 219.463 264.551C214.642 271.22 210.779 278.366 210.369 286.469H184.944V251.591L205.326 231.259C209.504 227.244 206.572 220.188 200.779 220.318C199.095 220.356 197.496 221.06 196.331 222.276L178.625 239.919L160.92 222.276C159.755 221.06 158.155 220.356 156.472 220.318C150.678 220.189 147.746 227.244 151.924 231.259L172.257 251.591V286.469H146.832C146.421 278.366 142.608 271.22 137.787 264.551C132.685 257.494 126.271 250.643 120.082 243.066C107.704 227.913 96.1563 210 96.1563 184.288C96.1563 139.696 132.783 103.473 178.625 102.562ZM178.625 119.289C170.165 119.289 170.165 131.989 178.625 131.989C197.531 131.989 214.989 142.016 224.431 158.305C229.113 165.785 239.511 158.891 235.384 151.937C223.674 131.736 202.025 119.289 178.625 119.289ZM242.087 172.282C238.589 172.268 235.739 175.089 235.719 178.588C235.698 182.082 238.507 184.935 242.001 184.969C245.499 185.003 248.365 182.198 248.406 178.662C248.406 175.131 245.581 172.295 242.087 172.282Z" fill="#66EF4B"/>
<path d="M155.257 4.79205C149.021 7.91174 146.724 12.5623 145.048 16.3644C143.372 20.1666 142.322 23.1545 139.423 26.4748C136.524 29.7951 131.555 33.6502 121.68 37.6259C111.805 41.6016 105.571 42.2699 101.162 41.8881C96.7525 41.5064 93.9283 40.0412 90.0727 38.4684C85.4468 36.5812 80.6546 35.3731 74.6099 37.2542C68.5651 39.1352 62.5201 43.5231 54.1042 51.7631C45.6882 60.0032 41.1586 65.9428 39.1617 71.9466C37.0582 78.2702 38.6385 83.528 40.1528 87.3971C41.6672 91.2662 43.0674 94.1153 43.3743 98.4987C43.6812 102.882 42.8979 109.071 38.7404 118.831C34.5828 128.591 30.6776 133.409 27.2671 136.289C23.8566 139.169 20.7315 140.27 16.8222 142.05C12.1183 144.191 7.97967 146.949 5.12593 152.78C2.27219 158.611 1.10046 166.307 1 178.626C1.1007 190.945 2.27219 198.641 5.12593 204.472C8.24242 210.839 12.913 213.422 16.8222 215.201C20.7314 216.981 23.8568 218.083 27.2671 220.963C30.6775 223.843 34.5828 228.66 38.7404 238.421C42.8978 248.181 43.6812 254.369 43.3743 258.753C43.0671 263.136 41.6671 265.985 40.1528 269.854C38.439 274.233 37.1646 279.301 39.1617 285.305C41.0498 290.981 45.6882 297.248 54.1042 305.488C62.5201 313.728 68.9266 318.229 74.6099 319.997C81.2335 322.058 86.2172 320.356 90.0727 318.783C93.9283 317.21 96.7525 315.745 101.162 315.363C105.366 314.999 111.805 315.65 121.68 319.626C127.289 321.884 131.254 324.112 134.219 326.217V337.232C134.216 347.666 142.629 356.251 153.238 356.251V362.619C153.238 373.053 161.699 381.626 172.306 381.626H184.944C195.551 381.626 204.012 373.053 204.012 362.619V356.251C214.621 356.251 223.034 347.666 223.031 337.232V326.217C225.996 324.111 229.961 321.883 235.57 319.625C245.445 315.649 251.884 314.999 256.088 315.363C260.498 315.745 263.322 317.21 267.177 318.782C271.033 320.355 276.017 322.058 282.64 319.997C288.323 318.228 294.73 313.728 303.146 305.488C311.562 297.248 316.2 290.981 318.088 285.304C320.085 279.301 318.811 274.233 317.097 269.854C315.583 265.985 314.183 263.136 313.876 258.752C313.569 254.369 314.352 248.18 318.51 238.42C322.667 228.66 326.573 223.842 329.983 220.962C333.393 218.082 336.519 216.98 340.428 215.201C344.337 213.421 349.008 210.838 352.124 204.471C354.978 198.64 356.149 190.944 356.25 178.625C356.149 166.306 354.978 158.61 352.124 152.779C349.27 146.949 345.132 144.191 340.428 142.05C336.519 140.27 333.393 139.168 329.983 136.288C326.572 133.408 322.667 128.591 318.51 118.83C314.352 109.07 313.569 102.882 313.876 98.4982C314.183 94.1148 315.583 91.2657 317.097 87.3966C318.612 83.5275 320.192 78.2696 318.088 71.9461C316.091 65.9423 311.562 60.0026 303.146 51.7626C294.73 43.5226 288.685 39.1348 282.64 37.2537C276.595 35.3728 271.803 36.5807 267.177 38.4679C263.322 40.0408 260.498 41.5058 256.088 41.8876C251.679 42.2693 245.445 41.6011 235.57 37.6254C225.695 33.6497 220.727 29.7946 217.827 26.4742C214.928 23.1539 213.878 20.1661 212.202 16.3639C210.526 12.5617 208.229 7.91121 201.993 4.79152C196.858 2.22255 190.106 1.10933 178.625 1C167.144 1.11056 160.392 2.22308 155.257 4.79205ZM196.331 16.1285C198.335 17.1314 199.247 18.3027 200.642 21.4687C202.038 24.6345 203.816 29.7059 208.275 34.8128C212.734 39.9198 219.669 44.8871 230.837 49.3837C242.006 53.8802 250.404 55.111 257.166 54.5256C263.928 53.9401 268.794 51.5378 272.01 50.2262C274.424 49.2415 276.139 48.5442 278.836 49.3837C281.534 50.2231 286.48 53.1996 294.25 60.8073C302.02 68.4151 305.073 73.0495 306.045 75.9729C306.748 78.0857 306.513 79.5413 305.252 82.7627C303.992 85.9841 301.699 90.8485 301.226 97.6061C300.752 104.364 302.094 112.736 306.801 123.786C311.508 134.837 316.655 141.619 321.83 145.99C327.006 150.36 332.036 152.144 335.175 153.572C337.36 154.567 339.304 155.489 340.701 158.342C342.094 161.19 343.464 167.269 343.563 178.625C343.464 189.982 342.177 195.891 340.701 198.908C339.304 201.761 337.309 202.706 335.175 203.678C332.036 205.107 327.006 206.89 321.83 211.261C316.655 215.631 311.508 222.413 306.801 233.464C302.094 244.514 300.752 252.887 301.226 259.644C301.699 266.402 303.992 271.266 305.252 274.488C306.134 276.74 306.929 278.622 306.045 281.277C305.162 283.933 302.02 288.835 294.25 296.443C286.48 304.051 281.757 307.007 278.836 307.916C276.708 308.579 275.225 308.336 272.01 307.024C268.794 305.712 263.928 303.31 257.166 302.725C250.404 302.139 242.006 303.37 230.837 307.867C227.924 309.04 225.397 310.247 223.031 311.472V299.169C231.416 299.155 231.402 286.651 223.13 286.469C223.529 282.154 225.765 277.52 229.758 271.997C234.172 265.892 240.495 259.026 246.993 251.07C259.99 235.159 273.78 214.597 273.78 184.287C273.78 132.657 231.253 90.725 178.624 89.8126C125.995 90.7251 83.468 132.657 83.468 184.287C83.468 214.597 97.2586 235.159 110.255 251.07C116.754 259.026 123.076 265.892 127.49 271.997C131.479 277.515 133.667 282.182 134.069 286.494C125.777 286.661 125.814 299.169 134.218 299.169V311.472C131.852 310.247 129.326 309.04 126.412 307.867C115.244 303.37 106.845 302.139 100.083 302.725C93.3215 303.31 88.455 305.712 85.2398 307.024C82.0245 308.336 80.5416 308.579 78.4128 307.916C75.4921 307.007 70.7696 304.051 62.9995 296.443C55.2293 288.835 52.0873 283.933 51.204 281.277C50.3205 278.622 51.1153 276.74 51.9969 274.488C53.2576 271.266 55.5504 266.402 56.0237 259.644C56.497 252.887 55.1553 244.514 50.4482 233.464C45.7409 222.413 40.5943 215.631 35.4189 211.261C30.2436 206.89 25.2132 205.107 22.0747 203.678C19.9406 202.706 17.9454 201.762 16.5488 198.908C15.0723 195.891 13.7849 189.982 13.6866 178.625C13.7849 167.269 15.1552 161.19 16.5488 158.342C17.9454 155.489 19.8893 154.567 22.0747 153.572C25.2132 152.144 30.2435 150.36 35.4189 145.99C40.5943 141.619 45.7409 134.837 50.4482 123.786C55.1555 112.736 56.497 104.364 56.0237 97.6061C55.5504 90.8485 53.2576 85.9841 51.9969 82.7627C50.7362 79.5413 50.5013 78.0857 51.204 75.9729C52.1765 73.0495 55.2292 68.4151 62.9994 60.8073C70.7696 53.1996 75.715 50.2231 78.4128 49.3837C81.1105 48.5442 82.8256 49.2422 85.2397 50.2262C88.455 51.5379 93.3215 53.9401 100.083 54.5256C106.845 55.1111 115.244 53.8804 126.412 49.3837C137.581 44.8871 144.516 39.9198 148.975 34.8128C153.434 29.7059 155.211 24.6345 156.607 21.4687C158.003 18.3028 158.914 17.1315 160.919 16.1285C163.32 14.9273 168.73 13.7712 178.625 13.7373C188.519 13.7709 193.929 14.9273 196.331 16.1285ZM178.625 102.562C224.467 103.473 261.094 139.696 261.094 184.288C261.094 210 249.547 227.913 237.168 243.066C230.979 250.643 224.565 257.494 219.463 264.551C214.642 271.22 210.779 278.366 210.369 286.469H184.944V251.591L205.326 231.259C209.504 227.244 206.572 220.188 200.779 220.318C199.095 220.356 197.496 221.06 196.331 222.276L178.625 239.919L160.92 222.276C159.755 221.06 158.155 220.356 156.472 220.318C150.678 220.189 147.746 227.244 151.924 231.259L172.257 251.591V286.469H146.832C146.421 278.366 142.608 271.22 137.787 264.551C132.685 257.494 126.271 250.643 120.082 243.066C107.704 227.913 96.1563 210 96.1563 184.288C96.1563 139.696 132.783 103.473 178.625 102.562ZM178.625 119.289C170.165 119.289 170.165 131.989 178.625 131.989C197.531 131.989 214.989 142.016 224.431 158.305C229.113 165.785 239.511 158.891 235.384 151.937C223.674 131.736 202.025 119.289 178.625 119.289ZM242.087 172.282C238.589 172.268 235.739 175.089 235.719 178.588C235.698 182.082 238.507 184.935 242.001 184.969C245.499 185.003 248.365 182.198 248.406 178.662C248.406 175.131 245.581 172.295 242.087 172.282Z" stroke="#66EF4B" stroke-width="2" mask="url(#path-1-outside-1_1_18)"/>
<path d="M166 8.5L128.5 40C118.333 43.3333 94.2 48.4 79 42C63.8 35.6 63 44.6667 64.5 50L53 65L45 79.5L48 110L37 131L11 153.5L7.5 194.5L25.5 214.5L48 235L43.5 280L60 299L80.5 311.5L132 317.5L154 305.5L106.5 233L98 219.5L91 181L95 153.5L125 118.5L138.5 107L155.5 100.5L181.5 95.5L208 100.5L233 118.5L254 138.5L267 175.5V208L217.5 285V311.5L224 317.5L246 311.5H267H282L312 283L306 255.5L312 234L344.5 203L346.5 197V157L330 143.5L312 123.5L308 93V69L277.5 43L266 50L224.5 40L200 8.5H166Z" fill="#66EF4B" stroke="#66EF4B"/>
</svg>
